<mxfile host="app.diagrams.net" modified="2024-02-23T14:31:01.975Z" agent="Mozilla/5.0 (Windows NT 10.0; Win64; x64) AppleWebKit/537.36 (KHTML, like Gecko) Chrome/121.0.0.0 Safari/537.36" version="23.1.6" etag="dB0A7ngKH-xCmnL6yf-L" type="github">
  <diagram name="第 1 页" id="WeIG0Y41xmTAdOp6ySxe">
    <mxGraphModel>
      <root>
        <mxCell id="0" />
        <mxCell id="1" parent="0" />
      </root>
    </mxGraphModel>
  </diagram>
</mxfile>
